<svg width="32" height="32" xmlns="http://www.w3.org/2000/svg">
  <!-- Outer circle -->
  <circle cx="16" cy="16" r="15" fill="none" stroke="#2c3e50" stroke-width="2"/>
  
  <!-- Water/sea base -->
  <rect x="4" y="20" width="24" height="8" fill="#3498db" stroke="#2980b9" stroke-width="0.5"/>
  
  <!-- Water waves -->
  <path d="M 4 22 Q 8 20 12 22 Q 16 20 20 22 Q 24 20 28 22" fill="none" stroke="#5dade2" stroke-width="1"/>
  <path d="M 4 24 Q 8 22 12 24 Q 16 22 20 24 Q 24 22 28 24" fill="none" stroke="#5dade2" stroke-width="1"/>
  
  <!-- Dock/pier -->
  <rect x="6" y="18" width="20" height="2" fill="#8b4513" stroke="#654321" stroke-width="0.5"/>
  
  <!-- Cargo ship -->
  <rect x="8" y="14" width="12" height="4" fill="#34495e" stroke="#2c3e50" stroke-width="0.5"/>
  <rect x="18" y="10" width="2" height="4" fill="#95a5a6" stroke="#7f8c8d" stroke-width="0.5"/>
  
  <!-- Ship mast -->
  <line x1="19" y1="10" x2="19" y2="8" stroke="#8b4513" stroke-width="1"/>
  
  <!-- Ship flag -->
  <polygon points="19,8 22,8 21,7" fill="#e74c3c"/>
  
  <!-- Dock cranes -->
  <rect x="10" y="12" width="1" height="6" fill="#95a5a6" stroke="#7f8c8d" stroke-width="0.5"/>
  <line x1="10" y1="12" x2="12" y2="14" stroke="#95a5a6" stroke-width="1"/>
  <rect x="22" y="12" width="1" height="6" fill="#95a5a6" stroke="#7f8c8d" stroke-width="0.5"/>
  <line x1="23" y1="12" x2="21" y2="14" stroke="#95a5a6" stroke-width="1"/>
  
  <!-- Cargo containers -->
  <rect x="12" y="15" width="2" height="3" fill="#e67e22" stroke="#d35400" stroke-width="0.3"/>
  <rect x="14" y="15" width="2" height="3" fill="#27ae60" stroke="#229954" stroke-width="0.3"/>
  <rect x="16" y="15" width="2" height="3" fill="#f39c12" stroke="#e67e22" stroke-width="0.3"/>
</svg>