<svg width="32" height="32" xmlns="http://www.w3.org/2000/svg">
  <!-- Outer circle -->
  <circle cx="16" cy="16" r="15" fill="none" stroke="#2c3e50" stroke-width="2"/>
  
  <!-- Base platform -->
  <rect x="8" y="20" width="16" height="4" fill="#8b4513" stroke="#654321" stroke-width="1"/>
  
  <!-- Main gopuram structure - pyramidal tiers -->
  <!-- Bottom tier (widest) -->
  <rect x="10" y="18" width="12" height="2" fill="#e74c3c" stroke="#c0392b" stroke-width="0.5"/>
  
  <!-- Second tier -->
  <rect x="11" y="16" width="10" height="2" fill="#e74c3c" stroke="#c0392b" stroke-width="0.5"/>
  
  <!-- Third tier -->
  <rect x="12" y="14" width="8" height="2" fill="#e74c3c" stroke="#c0392b" stroke-width="0.5"/>
  
  <!-- Fourth tier -->
  <rect x="13" y="12" width="6" height="2" fill="#e74c3c" stroke="#c0392b" stroke-width="0.5"/>
  
  <!-- Top tier -->
  <rect x="14" y="10" width="4" height="2" fill="#e74c3c" stroke="#c0392b" stroke-width="0.5"/>
  
  <!-- Central tower (vimana) -->
  <rect x="15" y="8" width="2" height="4" fill="#d35400" stroke="#a04000" stroke-width="0.5"/>
  
  <!-- Kalasha (pot) on top -->
  <circle cx="16" cy="7" r="0.8" fill="#f39c12" stroke="#e67e22" stroke-width="0.3"/>
  
  <!-- Decorative elements on each tier -->
  <!-- Bottom tier decorations -->
  <rect x="11" y="18.3" width="1" height="1.4" fill="#f1c40f"/>
  <rect x="13" y="18.3" width="1" height="1.4" fill="#f1c40f"/>
  <rect x="15" y="18.3" width="1" height="1.4" fill="#f1c40f"/>
  <rect x="17" y="18.3" width="1" height="1.4" fill="#f1c40f"/>
  <rect x="19" y="18.3" width="1" height="1.4" fill="#f1c40f"/>
  
  <!-- Second tier decorations -->
  <rect x="12" y="16.3" width="1" height="1.4" fill="#f1c40f"/>
  <rect x="14" y="16.3" width="1" height="1.4" fill="#f1c40f"/>
  <rect x="16" y="16.3" width="1" height="1.4" fill="#f1c40f"/>
  <rect x="18" y="16.3" width="1" height="1.4" fill="#f1c40f"/>
  
  <!-- Third tier decorations -->
  <rect x="13" y="14.3" width="1" height="1.4" fill="#f1c40f"/>
  <rect x="15" y="14.3" width="1" height="1.4" fill="#f1c40f"/>
  <rect x="17" y="14.3" width="1" height="1.4" fill="#f1c40f"/>
  
  <!-- Fourth tier decorations -->
  <rect x="14" y="12.3" width="1" height="1.4" fill="#f1c40f"/>
  <rect x="16" y="12.3" width="1" height="1.4" fill="#f1c40f"/>
  
  <!-- Top tier decoration -->
  <rect x="15" y="10.3" width="1" height="1.4" fill="#f1c40f"/>
  
  <!-- Side wings (characteristic of gopuram) -->
  <rect x="6" y="19" width="2" height="3" fill="#c0392b" stroke="#a93226" stroke-width="0.5"/>
  <rect x="24" y="19" width="2" height="3" fill="#c0392b" stroke="#a93226" stroke-width="0.5"/>
  
  <!-- Wing decorations -->
  <rect x="6.3" y="19.3" width="1.4" height="1" fill="#f1c40f"/>
  <rect x="24.3" y="19.3" width="1.4" height="1" fill="#f1c40f"/>
  
  <!-- Central entrance arch -->
  <path d="M 14 20 Q 16 18 18 20" fill="none" stroke="#8b4513" stroke-width="1"/>
</svg>
