<svg width="32" height="32" xmlns="http://www.w3.org/2000/svg">
  <!-- Outer circle -->
  <circle cx="16" cy="16" r="15" fill="none" stroke="#2c3e50" stroke-width="2"/>
  
  <!-- Base platform -->
  <rect x="4" y="20" width="24" height="4" fill="#bdc3c7" stroke="#95a5a6" stroke-width="0.5"/>
  
  <!-- Main temple structure -->
  <rect x="6" y="12" width="20" height="8" fill="#ecf0f1" stroke="#bdc3c7" stroke-width="0.5"/>
  
  <!-- Columns -->
  <rect x="7" y="12" width="1" height="8" fill="#d5dbdb" stroke="#bdc3c7" stroke-width="0.3"/>
  <rect x="9" y="12" width="1" height="8" fill="#d5dbdb" stroke="#bdc3c7" stroke-width="0.3"/>
  <rect x="11" y="12" width="1" height="8" fill="#d5dbdb" stroke="#bdc3c7" stroke-width="0.3"/>
  <rect x="13" y="12" width="1" height="8" fill="#d5dbdb" stroke="#bdc3c7" stroke-width="0.3"/>
  <rect x="15" y="12" width="1" height="8" fill="#d5dbdb" stroke="#bdc3c7" stroke-width="0.3"/>
  <rect x="17" y="12" width="1" height="8" fill="#d5dbdb" stroke="#bdc3c7" stroke-width="0.3"/>
  <rect x="19" y="12" width="1" height="8" fill="#d5dbdb" stroke="#bdc3c7" stroke-width="0.3"/>
  <rect x="21" y="12" width="1" height="8" fill="#d5dbdb" stroke="#bdc3c7" stroke-width="0.3"/>
  <rect x="23" y="12" width="1" height="8" fill="#d5dbdb" stroke="#bdc3c7" stroke-width="0.3"/>
  
  <!-- Pediment (triangular roof) -->
  <polygon points="6,12 16,6 26,12" fill="#e74c3c" stroke="#c0392b" stroke-width="0.5"/>
  
  <!-- Pediment decoration -->
  <rect x="14" y="8" width="4" height="2" fill="#f39c12" stroke="#e67e22" stroke-width="0.3"/>
  
  <!-- Column capitals (Doric style) -->
  <rect x="7" y="11" width="1" height="0.5" fill="#f39c12"/>
  <rect x="9" y="11" width="1" height="0.5" fill="#f39c12"/>
  <rect x="11" y="11" width="1" height="0.5" fill="#f39c12"/>
  <rect x="13" y="11" width="1" height="0.5" fill="#f39c12"/>
  <rect x="15" y="11" width="1" height="0.5" fill="#f39c12"/>
  <rect x="17" y="11" width="1" height="0.5" fill="#f39c12"/>
  <rect x="19" y="11" width="1" height="0.5" fill="#f39c12"/>
  <rect x="21" y="11" width="1" height="0.5" fill="#f39c12"/>
  <rect x="23" y="11" width="1" height="0.5" fill="#f39c12"/>
  
  <!-- Steps -->
  <rect x="5" y="21" width="22" height="1" fill="#95a5a6" stroke="#7f8c8d" stroke-width="0.3"/>
  <rect x="4" y="22" width="24" height="1" fill="#95a5a6" stroke="#7f8c8d" stroke-width="0.3"/>
</svg>
